<?xml version="1.0" encoding="utf-8"?>
<!-- Generator: Adobe Illustrator 23.1.1, SVG Export Plug-In . SVG Version: 6.00 Build 0)  -->
<svg version="1.1" id="Ebene_1" xmlns="http://www.w3.org/2000/svg" xmlns:xlink="http://www.w3.org/1999/xlink" x="0px" y="0px"
	 viewBox="0 0 171.4 118.6" style="enable-background:new 0 0 171.4 118.6;" xml:space="preserve">
<style type="text/css">
	.st0{fill:#FFFFFF;}
</style>
<title>Element 1</title>
<g>
	<g id="Ebene_3">
		<path class="st0" d="M93.1,63c0-0.5-0.2-1-0.6-1.4c-0.6-0.4-1.4-0.6-2.1-0.5c-0.6,0-1.3,0-1.9,0.1v6.7h1.2v-2.8h0.6
			c0.7,0,1,0.3,1.2,1.2c0.1,0.5,0.2,1.1,0.4,1.6h1.3c-0.2-0.6-0.4-1.3-0.5-1.9c-0.1-0.6-0.4-1.1-0.9-1.3l0,0
			C92.6,64.4,93,63.8,93.1,63z M90.5,64.2h-0.7v-2.2C90,62,90.2,62,90.5,62c0.8,0,1.3,0.3,1.3,1.1S91.3,64.2,90.5,64.2L90.5,64.2z
			 M41.8,61.1h5.1v1h-1.9v5.7h-1.2v-5.8h-1.9V61.1z M26.8,61.1H28v6.8h-1.2L26.8,61.1z M34,61.1h1.2v6.8h-1.3l-1.8-3
			c-0.4-0.8-0.9-1.5-1.2-2.3l0,0c0,0.9,0.1,1.8,0.1,2.9v2.4h-1.2v-6.8h1.4l1.8,2.9c0.4,0.7,0.8,1.5,1.2,2.3l0,0
			C34,65.4,34,64.5,34,63.5L34,61.1z M41,66c0,1.1-0.8,2-2.6,2c-0.6,0-1.3-0.1-1.8-0.4l0.3-1c0.5,0.3,1.1,0.4,1.6,0.4
			c0.8,0,1.2-0.4,1.2-0.9s-0.3-0.8-1.2-1.1c-1.1-0.4-1.8-1-1.8-2c0.1-1.2,1.2-2.1,2.4-2c0,0,0,0,0,0c0.6,0,1.1,0.1,1.6,0.3l-0.3,1
			C40,62.1,39.5,62,39.1,62c-0.8,0-1.1,0.4-1.1,0.8s0.4,0.8,1.3,1.1C40.4,64.4,41,65,41,66z M81.3,62.8c0-0.5-0.3-1-0.7-1.3
			c-0.6-0.3-1.3-0.5-1.9-0.4c-0.6,0-1.2,0-1.8,0.1v6.7c0.5,0.1,1,0.1,1.5,0.1c0.9,0.1,1.8-0.1,2.5-0.6c0.8-0.6,0.9-1.7,0.3-2.4
			c0,0,0,0,0,0c-0.2-0.3-0.6-0.5-1-0.6l0,0C80.9,64.1,81.3,63.5,81.3,62.8L81.3,62.8z M78.1,62c0.2,0,0.5,0,0.7,0
			c0.8,0,1.3,0.3,1.3,0.9s-0.5,1-1.3,1h-0.6V62z M80.2,65.9c0,0.8-0.7,1.1-1.5,1.1c-0.2,0-0.4,0-0.7,0v-2.2h0.6
			C79.5,64.8,80.2,65.1,80.2,65.9L80.2,65.9z M95.9,61.1v5.7h2.8v1h-4v-6.7H95.9z M158,0.4h13.4c-1.8,65.6-55.4,118-121,118.2v-13.3
			C108.7,105,156.2,58.6,158,0.4z M107.1,49.8c3.5-2.7,5.6-6.9,5.6-11.4c0-6.9-4.6-11.6-10.7-13.2V25c6.1-2.2,8.8-6.7,8.8-11.5
			c0-4.5-2.5-8.5-6.5-10.5c-3.9-2.3-8.5-3-15.9-3C83.2-0.1,78,0.3,72.8,1.1v52.8c4.4,0.6,8.8,0.8,13.2,0.8
			C96.6,54.7,103.2,52.9,107.1,49.8L107.1,49.8z M84.8,9.1c1.7-0.2,3.4-0.4,5.2-0.3c5.5,0,8.6,2.2,8.6,6.2s-3.4,6.6-9.8,6.6h-4
			L84.8,9.1z M84.8,30.4H89c6.1,0,10.9,2.1,10.9,7.6c0,5.6-4.9,7.7-10.4,7.7c-1.6,0-3.1,0-4.7-0.2L84.8,30.4z M103.9,62.6
			L103.9,62.6c0,0.9,0.1,1.8,0.1,2.9v2.4h-1.1v-6.8h1.4L106,64c0.4,0.7,0.8,1.5,1.2,2.3l0,0c-0.1-0.9-0.1-1.8-0.1-2.8v-2.3h1.2v6.8
			h-1.3l-1.8-3C104.7,64.1,104.3,63.4,103.9,62.6z M99.8,67.9v-6.8h1.2v6.8H99.8z M84.2,62.1v1.8h2.6v1h-2.6v2h2.8v1H83v-6.8h3.9v1
			L84.2,62.1z M2,66.9h3.5v1H0.3v-0.7l3.5-5H0.6v-1h4.8v0.7L2,66.9L2,66.9z M10.7,61.1H12V65c0,2.1-1.1,3-2.7,3s-2.6-0.9-2.6-3v-3.9
			h1.2v3.9c0,1.3,0.6,1.9,1.4,1.9s1.4-0.6,1.4-1.9L10.7,61.1z M20.4,66.9h2.9v1h-4.1v-6.8H23v1h-2.7v1.8h2.5v1h-2.5L20.4,66.9z
			 M41.8,54.1H0v-6.5l25.6-36.8v-0.3H2.4V0.4h39v7l-25,36.3V44h25.4L41.8,54.1z M73.3,67.9h-4.1v-6.8h3.9v1h-2.7v1.8H73v1h-2.6v2
			h2.9V67.9z M17.7,66c0,1.1-0.8,2-2.6,2c-0.6,0-1.3-0.1-1.8-0.4l0.3-1c0.5,0.3,1.1,0.4,1.6,0.4c0.8,0,1.2-0.4,1.2-0.9
			s-0.3-0.8-1.2-1.1c-1.1-0.4-1.8-1-1.8-2c0.1-1.2,1.2-2.1,2.4-2c0,0,0,0,0,0c0.6,0,1.1,0.1,1.6,0.3l-0.3,1
			c-0.4-0.2-0.9-0.3-1.4-0.3c-0.8,0-1.1,0.4-1.1,0.8s0.4,0.8,1.3,1.1C17.1,64.4,17.7,65,17.7,66z M62.7,54.1H50.4V0.4h12.2
			L62.7,54.1z M64.9,62.1H63v-1h5.1v1h-2v5.7h-1.3L64.9,62.1z M48,61.1h1.2v6.8H48V61.1z M52.3,62.1h-1.9v-1h5.1v1h-2v5.7h-1.2
			L52.3,62.1z M57.8,61.1v3.9c0,1.3,0.5,1.9,1.4,1.9s1.4-0.6,1.4-1.9v-3.9h1.2V65c0,2.1-1.1,3-2.7,3s-2.6-0.9-2.6-3v-3.9L57.8,61.1z
			"/>
	</g>
</g>
</svg>
